<svg xmlns="http://www.w3.org/2000/svg" viewBox="0 0 279.08 77.5"><defs><style>.cls-1{fill:none;stroke:#1d1d1b;stroke-linecap:round;stroke-miterlimit:10;stroke-width:3.85px;}.cls-2{fill:#000400;}.cls-3{font-size:40.72px;fill:#1d1e1c;font-family:LCTPicon-Bold, LCT Picon;font-weight:700;}.cls-4{letter-spacing:-0.08em;}.cls-5,.cls-6{fill:#1b93d2;}.cls-5,.cls-6,.cls-7{font-family:LCTPicon-Light, LCT Picon;font-weight:300;}.cls-5{letter-spacing:-0.04em;}.cls-7{font-size:18.96px;}.cls-8{letter-spacing:-0.01em;}.cls-9{letter-spacing:-0.03em;}</style></defs><g id="Layer_2" data-name="Layer 2"><g id="Calque_1" data-name="Calque 1"><circle class="cls-1" cx="23.6" cy="52.64" r="8.05"/><path class="cls-1" d="M23.72,44.59c11.07,0,20,4.42,20,15.49,0,8.88-7.43,15.5-19,15.5-11,0-22.8-7.77-22.8-24.83S20.31,16.81,37.38,16.81"/><circle class="cls-1" cx="37.98" cy="24.86" r="8.05"/><path class="cls-1" d="M37.86,32.91c-11.07,0-20-4.42-20-15.49,0-8.88,7.44-15.5,19-15.5,11,0,22.79,7.77,22.79,24.83S41.27,60.69,24.21,60.69"/><polygon class="cls-2" points="144.7 61.35 151.22 54.84 138.14 54.84 138.14 67.92 151.22 67.92 144.69 61.35 144.7 61.35"/><text class="cls-3" transform="translate(68.02 46.92)"><tspan class="cls-4">K</tspan><tspan x="23.9" y="0">ODEIN</tspan><tspan class="cls-5" x="145.33" y="0">L</tspan><tspan class="cls-6" x="164.63" y="0">og</tspan></text><text class="cls-7" transform="translate(68.91 67.97)"><tspan class="cls-8">p</tspan><tspan x="10.73" y="0">ainle</tspan><tspan class="cls-9" x="48.3" y="0">s</tspan><tspan x="55.78" y="0" xml:space="preserve">s      logging</tspan></text></g></g></svg>